<svg xmlns="http://www.w3.org/2000/svg" xmlns:xlink="http://www.w3.org/1999/xlink" contentStyleType="text/css" height="767px" preserveAspectRatio="none" style="width:2465px;height:767px;background:#FFFFFF;" version="1.1" viewBox="0 0 2465 767" width="2465px" zoomAndPan="magnify"><title>&lt;b&gt;Diagrama de Paquetes y Componentes &#8212; Realizaciones&lt;/b&gt;</title><defs/><g><text fill="#000000" font-family="Arial" font-size="14" font-weight="bold" lengthAdjust="spacing" textLength="373.4541" x="1037.7729" y="23.1318">Diagrama de Paquetes y Componentes &#8212; Realizaciones</text><text fill="#000000" font-family="Arial" font-size="14" font-weight="bold" lengthAdjust="spacing" textLength="357.8545" x="1045.5728" y="39.2305">Banco Digital &#8212; Java 17 &#183; Spring Boot 3 &#183; PostgreSQL</text><!--cluster security--><g id="cluster_security"><path d="M17,189.1973 L70.6963,189.1973 A4.5,4.5 0 0 1 73.6963,192.1973 L80.6963,211.2959 L270,211.2959 A3,3 0 0 1 273,214.2959 L273,394.6973 A3,3 0 0 1 270,397.6973 L17,397.6973 A3,3 0 0 1 14,394.6973 L14,192.1973 A3,3 0 0 1 17,189.1973 " fill="#FFF3E0" style="stroke:#555555;stroke-width:2.0;"/><line style="stroke:#555555;stroke-width:2.0;" x1="14" x2="80.6963" y1="211.2959" y2="211.2959"/><text fill="#111111" font-family="Arial" font-size="14" font-weight="bold" lengthAdjust="spacing" textLength="53.6963" x="18" y="204.3291">security</text></g><!--cluster controller--><g id="cluster_controller"><path d="M284,304.1973 L348.5654,304.1973 A4.5,4.5 0 0 1 351.5654,307.1973 L358.5654,326.2959 L782,326.2959 A3,3 0 0 1 785,329.2959 L785,409.1973 A3,3 0 0 1 782,412.1973 L284,412.1973 A3,3 0 0 1 281,409.1973 L281,307.1973 A3,3 0 0 1 284,304.1973 " fill="#F1F8E9" style="stroke:#555555;stroke-width:2.0;"/><line style="stroke:#555555;stroke-width:2.0;" x1="281" x2="358.5654" y1="326.2959" y2="326.2959"/><text fill="#111111" font-family="Arial" font-size="14" font-weight="bold" lengthAdjust="spacing" textLength="64.5654" x="285" y="319.3291">controller</text></g><!--cluster exception--><g id="cluster_exception"><path d="M605,187.1973 L670.3516,187.1973 A4.5,4.5 0 0 1 673.3516,190.1973 L680.3516,209.2959 L998,209.2959 A3,3 0 0 1 1001,212.2959 L1001,267.1973 A3,3 0 0 1 998,270.1973 L605,270.1973 A3,3 0 0 1 602,267.1973 L602,190.1973 A3,3 0 0 1 605,187.1973 " fill="#FCE4EC" style="stroke:#555555;stroke-width:2.0;"/><line style="stroke:#555555;stroke-width:2.0;" x1="602" x2="680.3516" y1="209.2959" y2="209.2959"/><text fill="#111111" font-family="Arial" font-size="14" font-weight="bold" lengthAdjust="spacing" textLength="65.3516" x="606" y="202.3291">exception</text></g><!--cluster service--><g id="cluster_service"><path d="M796,318.6973 L844.2686,318.6973 A4.5,4.5 0 0 1 847.2686,321.6973 L854.2686,340.7959 L2455,340.7959 A3,3 0 0 1 2458,343.7959 L2458,485.1973 A3,3 0 0 1 2455,488.1973 L796,488.1973 A3,3 0 0 1 793,485.1973 L793,321.6973 A3,3 0 0 1 796,318.6973 " fill="#E3F2FD" style="stroke:#555555;stroke-width:2.0;"/><line style="stroke:#555555;stroke-width:2.0;" x1="793" x2="854.2686" y1="340.7959" y2="340.7959"/><text fill="#111111" font-family="Arial" font-size="14" font-weight="bold" lengthAdjust="spacing" textLength="48.2686" x="797" y="333.8291">service</text></g><!--cluster mapper--><g id="cluster_mapper"><path d="M733,528.6973 L783.5723,528.6973 A4.5,4.5 0 0 1 786.5723,531.6973 L793.5723,550.7959 L1042,550.7959 A3,3 0 0 1 1045,553.7959 L1045,608.6973 A3,3 0 0 1 1042,611.6973 L733,611.6973 A3,3 0 0 1 730,608.6973 L730,531.6973 A3,3 0 0 1 733,528.6973 " fill="#EDE7F6" style="stroke:#555555;stroke-width:2.0;"/><line style="stroke:#555555;stroke-width:2.0;" x1="730" x2="793.5723" y1="550.7959" y2="550.7959"/><text fill="#111111" font-family="Arial" font-size="14" font-weight="bold" lengthAdjust="spacing" textLength="50.5723" x="734" y="543.8291">mapper</text></g><!--cluster dto--><g id="cluster_dto"><path d="M566,659.6973 L587.7656,659.6973 A4.5,4.5 0 0 1 590.7656,662.6973 L597.7656,681.7959 L1041,681.7959 A3,3 0 0 1 1044,684.7959 L1044,749.6973 A3,3 0 0 1 1041,752.6973 L566,752.6973 A3,3 0 0 1 563,749.6973 L563,662.6973 A3,3 0 0 1 566,659.6973 " fill="#ECEFF1" style="stroke:#555555;stroke-width:2.0;"/><line style="stroke:#555555;stroke-width:2.0;" x1="563" x2="597.7656" y1="681.7959" y2="681.7959"/><text fill="#111111" font-family="Arial" font-size="14" font-weight="bold" lengthAdjust="spacing" textLength="21.7656" x="567" y="674.8291">dto</text></g><!--cluster repository--><g id="cluster_repository"><path d="M1056,522.1973 L1124.4619,522.1973 A4.5,4.5 0 0 1 1127.4619,525.1973 L1134.4619,544.2959 L1361,544.2959 A3,3 0 0 1 1364,547.2959 L1364,615.1973 A3,3 0 0 1 1361,618.1973 L1056,618.1973 A3,3 0 0 1 1053,615.1973 L1053,525.1973 A3,3 0 0 1 1056,522.1973 " fill="#FFFDE7" style="stroke:#555555;stroke-width:2.0;"/><line style="stroke:#555555;stroke-width:2.0;" x1="1053" x2="1134.4619" y1="544.2959" y2="544.2959"/><text fill="#111111" font-family="Arial" font-size="14" font-weight="bold" lengthAdjust="spacing" textLength="68.4619" x="1057" y="537.3291">repository</text></g><!--cluster entity--><g id="cluster_entity"><path d="M1055,652.1973 L1092.3379,652.1973 A4.5,4.5 0 0 1 1095.3379,655.1973 L1102.3379,674.2959 L1333,674.2959 A3,3 0 0 1 1336,677.2959 L1336,757.1973 A3,3 0 0 1 1333,760.1973 L1055,760.1973 A3,3 0 0 1 1052,757.1973 L1052,655.1973 A3,3 0 0 1 1055,652.1973 " fill="#E1F5FE" style="stroke:#555555;stroke-width:2.0;"/><line style="stroke:#555555;stroke-width:2.0;" x1="1052" x2="1102.3379" y1="674.2959" y2="674.2959"/><text fill="#111111" font-family="Arial" font-size="14" font-weight="bold" lengthAdjust="spacing" textLength="37.3379" x="1056" y="667.3291">entity</text></g><!--entity HTTP--><g id="elem_HTTP"><ellipse cx="212.0095" cy="65.6973" fill="#F1F1F1" rx="8" ry="8" style="stroke:#333333;stroke-width:0.5;"/><path d="M212.0095,73.6973 L212.0095,100.6973 M199.0095,81.6973 L225.0095,81.6973 M212.0095,100.6973 L199.0095,115.6973 M212.0095,100.6973 L225.0095,115.6973 " fill="none" style="stroke:#333333;stroke-width:0.5;"/><text fill="#000000" font-family="Arial" font-size="13" lengthAdjust="spacing" textLength="78.019" x="173" y="129.3911">Cliente HTTP</text></g><!--entity DB--><g id="elem_DB"><path d="M1345.5,703.6973 C1345.5,693.6973 1390.9072,693.6973 1390.9072,693.6973 C1390.9072,693.6973 1436.3145,693.6973 1436.3145,703.6973 L1436.3145,727.646 C1436.3145,737.646 1390.9072,737.646 1390.9072,737.646 C1390.9072,737.646 1345.5,737.646 1345.5,727.646 L1345.5,703.6973 " fill="#FFFFFF" style="stroke:#333333;stroke-width:0.5;"/><path d="M1345.5,703.6973 C1345.5,713.6973 1390.9072,713.6973 1390.9072,713.6973 C1390.9072,713.6973 1436.3145,713.6973 1436.3145,703.6973 " fill="none" style="stroke:#333333;stroke-width:0.5;"/><text fill="#000000" font-family="Arial" font-size="13" lengthAdjust="spacing" textLength="70.8145" x="1355.5" y="729.8911">PostgreSQL</text></g><!--entity FiltroJwt--><g id="elem_FiltroJwt"><rect fill="#FFFFFF" height="43.7988" rx="3" ry="3" style="stroke:#444444;stroke-width:1.0;" width="84.666" x="169.5" y="216.1973"/><rect fill="#FFFFFF" height="10" style="stroke:#444444;stroke-width:1.0;" width="15" x="234.166" y="221.1973"/><rect fill="#FFFFFF" height="2" style="stroke:#444444;stroke-width:1.0;" width="4" x="232.166" y="223.1973"/><rect fill="#FFFFFF" height="2" style="stroke:#444444;stroke-width:1.0;" width="4" x="232.166" y="227.1973"/><text fill="#111111" font-family="Arial" font-size="12" lengthAdjust="spacing" textLength="44.666" x="184.5" y="247.4531">FiltroJwt</text></g><!--entity JwtUtil--><g id="elem_JwtUtil"><rect fill="#FFFFFF" height="43.7988" rx="3" ry="3" style="stroke:#444444;stroke-width:1.0;" width="75.332" x="189.5" y="345.6973"/><rect fill="#FFFFFF" height="10" style="stroke:#444444;stroke-width:1.0;" width="15" x="244.832" y="350.6973"/><rect fill="#FFFFFF" height="2" style="stroke:#444444;stroke-width:1.0;" width="4" x="242.832" y="352.6973"/><rect fill="#FFFFFF" height="2" style="stroke:#444444;stroke-width:1.0;" width="4" x="242.832" y="356.6973"/><text fill="#111111" font-family="Arial" font-size="12" lengthAdjust="spacing" textLength="35.332" x="204.5" y="376.9531">JwtUtil</text></g><g id="elem_GMN6"><path d="M22.5,353.1973 L22.5,382.4951 A3,3 0 0 0 25.5,385.4951 L168.0044,385.4951 A3,3 0 0 0 171.0044,382.4951 L171.0044,360.1973 L161.0044,350.1973 L115.9826,350.1973 L193.0101,260.2513 L107.9826,350.1973 L25.5,350.1973 A3,3 0 0 0 22.5,353.1973 " fill="#FFFFF0" style="stroke:#AAAAAA;stroke-width:0.5;"/><path d="M161.0044,350.1973 L161.0044,358.6973 A1.5,1.5 0 0 0 162.5044,360.1973 L171.0044,360.1973 L161.0044,350.1973 " fill="#FFFFF0" style="stroke:#AAAAAA;stroke-width:0.5;"/><text fill="#000000" font-family="Arial" font-size="11" lengthAdjust="spacing" textLength="127.5044" x="28.5" y="365.5151">+ ConfiguracionSeguridad</text><text fill="#000000" font-family="Arial" font-size="11" lengthAdjust="spacing" textLength="123.8037" x="28.5" y="378.1641">+ UsuarioDetallesService</text></g><!--entity AutenticacionController--><g id="elem_AutenticacionController"><rect fill="#FFFFFF" height="43.7988" rx="3" ry="3" style="stroke:#444444;stroke-width:1.0;" width="164.0664" x="613" y="345.6973"/><rect fill="#FFFFFF" height="10" style="stroke:#444444;stroke-width:1.0;" width="15" x="757.0664" y="350.6973"/><rect fill="#FFFFFF" height="2" style="stroke:#444444;stroke-width:1.0;" width="4" x="755.0664" y="352.6973"/><rect fill="#FFFFFF" height="2" style="stroke:#444444;stroke-width:1.0;" width="4" x="755.0664" y="356.6973"/><text fill="#111111" font-family="Arial" font-size="12" lengthAdjust="spacing" textLength="124.0664" x="628" y="376.9531">AutenticacionController</text></g><!--entity ClienteController--><g id="elem_ClienteController"><rect fill="#FFFFFF" height="43.7988" rx="3" ry="3" style="stroke:#444444;stroke-width:1.0;" width="129.373" x="289.5" y="345.6973"/><rect fill="#FFFFFF" height="10" style="stroke:#444444;stroke-width:1.0;" width="15" x="398.873" y="350.6973"/><rect fill="#FFFFFF" height="2" style="stroke:#444444;stroke-width:1.0;" width="4" x="396.873" y="352.6973"/><rect fill="#FFFFFF" height="2" style="stroke:#444444;stroke-width:1.0;" width="4" x="396.873" y="356.6973"/><text fill="#111111" font-family="Arial" font-size="12" lengthAdjust="spacing" textLength="89.373" x="304.5" y="376.9531">ClienteController</text></g><g id="elem_GMN12"><path d="M437,334.1973 L437,363.6973 L418.5469,367.6973 L437,371.6973 L437,401.4419 A3,3 0 0 0 440,404.4419 L591.646,404.4419 A3,3 0 0 0 594.646,401.4419 L594.646,341.1973 L584.646,331.1973 L440,331.1973 A3,3 0 0 0 437,334.1973 " fill="#FFFFF0" style="stroke:#AAAAAA;stroke-width:0.5;"/><path d="M584.646,331.1973 L584.646,339.6973 A1.5,1.5 0 0 0 586.146,341.1973 L594.646,341.1973 L584.646,331.1973 " fill="#FFFFF0" style="stroke:#AAAAAA;stroke-width:0.5;"/><text fill="#000000" font-family="Arial" font-size="11" lengthAdjust="spacing" textLength="92.6353" x="443" y="346.5151">+ CuentaController</text><text fill="#000000" font-family="Arial" font-size="11" lengthAdjust="spacing" textLength="117.0791" x="443" y="359.1641">+ TransaccionController</text><text fill="#000000" font-family="Arial" font-size="11" lengthAdjust="spacing" textLength="88.3438" x="443" y="371.813">+ ProfileController</text><text fill="#000000" font-family="Arial" font-size="11" lengthAdjust="spacing" textLength="136.646" x="443" y="384.4619">+ AccountSecurityController</text><text fill="#000000" font-family="Arial" font-size="11" lengthAdjust="spacing" textLength="136.0283" x="443" y="397.1108">+ RegistroUsuarioController</text></g><!--entity GlobalExceptionHandler--><g id="elem_GlobalExceptionHandler"><rect fill="#FFFFFF" height="43.7988" rx="3" ry="3" style="stroke:#444444;stroke-width:1.0;" width="169.4102" x="610.5" y="216.1973"/><rect fill="#FFFFFF" height="10" style="stroke:#444444;stroke-width:1.0;" width="15" x="759.9102" y="221.1973"/><rect fill="#FFFFFF" height="2" style="stroke:#444444;stroke-width:1.0;" width="4" x="757.9102" y="223.1973"/><rect fill="#FFFFFF" height="2" style="stroke:#444444;stroke-width:1.0;" width="4" x="757.9102" y="227.1973"/><text fill="#111111" font-family="Arial" font-size="12" lengthAdjust="spacing" textLength="129.4102" x="625.5" y="247.4531">GlobalExceptionHandler</text></g><g id="elem_GMN17"><path d="M797.5,217.1973 L797.5,234.1973 L779.7656,238.1973 L797.5,242.1973 L797.5,259.144 A3,3 0 0 0 800.5,262.144 L989.7651,262.144 A3,3 0 0 0 992.7651,259.144 L992.7651,224.1973 L982.7651,214.1973 L800.5,214.1973 A3,3 0 0 0 797.5,217.1973 " fill="#FFFFF0" style="stroke:#AAAAAA;stroke-width:0.5;"/><path d="M982.7651,214.1973 L982.7651,222.6973 A1.5,1.5 0 0 0 984.2651,224.1973 L992.7651,224.1973 L982.7651,214.1973 " fill="#FFFFF0" style="stroke:#AAAAAA;stroke-width:0.5;"/><text fill="#000000" font-family="Arial" font-size="11" lengthAdjust="spacing" textLength="133.3213" x="803.5" y="229.5151">13 excepciones de negocio</text><text fill="#000000" font-family="Arial" font-size="11" lengthAdjust="spacing" textLength="174.2651" x="803.5" y="242.1641">(ej: ClienteNoEncontradoException,</text><text fill="#000000" font-family="Arial" font-size="11" lengthAdjust="spacing" textLength="135.7383" x="803.5" y="254.813">TokenInvalidoException, ...)</text></g><!--entity ISvcAuth--><g id="elem_ISvcAuth"><ellipse cx="927" cy="465.1973" fill="#FFFFFF" rx="8" ry="8" style="stroke:#444444;stroke-width:0.5;"/><text fill="#111111" font-family="Arial" font-size="12" lengthAdjust="spacing" textLength="112.0605" x="870.9697" y="493.4531">AutenticacionService</text></g><!--entity ISvcCliente--><g id="elem_ISvcCliente"><ellipse cx="827" cy="465.1973" fill="#FFFFFF" rx="8" ry="8" style="stroke:#444444;stroke-width:0.5;"/><text fill="#111111" font-family="Arial" font-size="12" lengthAdjust="spacing" textLength="77.3672" x="788.3164" y="493.4531">ClienteService</text></g><!--entity ISvcCuenta--><g id="elem_ISvcCuenta"><ellipse cx="2379" cy="465.1973" fill="#FFFFFF" rx="8" ry="8" style="stroke:#444444;stroke-width:0.5;"/><text fill="#111111" font-family="Arial" font-size="12" lengthAdjust="spacing" textLength="78.709" x="2339.6455" y="493.4531">CuentaService</text></g><!--entity ISvcTx--><g id="elem_ISvcTx"><ellipse cx="2206" cy="465.1973" fill="#FFFFFF" rx="8" ry="8" style="stroke:#444444;stroke-width:0.5;"/><text fill="#111111" font-family="Arial" font-size="12" lengthAdjust="spacing" textLength="105.375" x="2153.3125" y="493.4531">TransaccionService</text></g><!--entity ISvcProfile--><g id="elem_ISvcProfile"><ellipse cx="2035" cy="465.1973" fill="#FFFFFF" rx="8" ry="8" style="stroke:#444444;stroke-width:0.5;"/><text fill="#111111" font-family="Arial" font-size="12" lengthAdjust="spacing" textLength="74.0273" x="1997.9863" y="493.4531">ProfileService</text></g><!--entity ISvcSec--><g id="elem_ISvcSec"><ellipse cx="1854" cy="465.1973" fill="#FFFFFF" rx="8" ry="8" style="stroke:#444444;stroke-width:0.5;"/><text fill="#111111" font-family="Arial" font-size="12" lengthAdjust="spacing" textLength="126.7207" x="1790.6396" y="493.4531">AccountSecurityService</text></g><!--entity ISvcRefresh--><g id="elem_ISvcRefresh"><ellipse cx="1652" cy="465.1973" fill="#FFFFFF" rx="8" ry="8" style="stroke:#444444;stroke-width:0.5;"/><text fill="#111111" font-family="Arial" font-size="12" lengthAdjust="spacing" textLength="115.3828" x="1594.3086" y="493.4531">RefreshTokenService</text></g><!--entity ISvcReg--><g id="elem_ISvcReg"><ellipse cx="1450" cy="465.1973" fill="#FFFFFF" rx="8" ry="8" style="stroke:#444444;stroke-width:0.5;"/><text fill="#111111" font-family="Arial" font-size="12" lengthAdjust="spacing" textLength="126.0469" x="1386.9766" y="493.4531">RegistroUsuarioService</text></g><!--entity ISvcNum--><g id="elem_ISvcNum"><ellipse cx="1245" cy="465.1973" fill="#FFFFFF" rx="8" ry="8" style="stroke:#444444;stroke-width:0.5;"/><text fill="#111111" font-family="Arial" font-size="12" lengthAdjust="spacing" textLength="121.3887" x="1184.3057" y="493.4531">NumeroCuentaService</text></g><!--entity AutenticacionServiceImpl--><g id="elem_AutenticacionServiceImpl"><rect fill="#FFFFFF" height="43.7988" rx="3" ry="3" style="stroke:#444444;stroke-width:1.0;" width="174.7305" x="959.5" y="345.6973"/><rect fill="#FFFFFF" height="10" style="stroke:#444444;stroke-width:1.0;" width="15" x="1114.2305" y="350.6973"/><rect fill="#FFFFFF" height="2" style="stroke:#444444;stroke-width:1.0;" width="4" x="1112.2305" y="352.6973"/><rect fill="#FFFFFF" height="2" style="stroke:#444444;stroke-width:1.0;" width="4" x="1112.2305" y="356.6973"/><text fill="#111111" font-family="Arial" font-size="12" lengthAdjust="spacing" textLength="134.7305" x="974.5" y="376.9531">AutenticacionServiceImpl</text></g><!--entity ClienteServiceImpl--><g id="elem_ClienteServiceImpl"><rect fill="#FFFFFF" height="43.7988" rx="3" ry="3" style="stroke:#444444;stroke-width:1.0;" width="140.0371" x="801" y="345.6973"/><rect fill="#FFFFFF" height="10" style="stroke:#444444;stroke-width:1.0;" width="15" x="921.0371" y="350.6973"/><rect fill="#FFFFFF" height="2" style="stroke:#444444;stroke-width:1.0;" width="4" x="919.0371" y="352.6973"/><rect fill="#FFFFFF" height="2" style="stroke:#444444;stroke-width:1.0;" width="4" x="919.0371" y="356.6973"/><text fill="#111111" font-family="Arial" font-size="12" lengthAdjust="spacing" textLength="100.0371" x="816" y="376.9531">ClienteServiceImpl</text></g><!--entity CuentaServiceImpl--><g id="elem_CuentaServiceImpl"><rect fill="#FFFFFF" height="43.7988" rx="3" ry="3" style="stroke:#444444;stroke-width:1.0;" width="141.3789" x="2308.5" y="345.6973"/><rect fill="#FFFFFF" height="10" style="stroke:#444444;stroke-width:1.0;" width="15" x="2429.8789" y="350.6973"/><rect fill="#FFFFFF" height="2" style="stroke:#444444;stroke-width:1.0;" width="4" x="2427.8789" y="352.6973"/><rect fill="#FFFFFF" height="2" style="stroke:#444444;stroke-width:1.0;" width="4" x="2427.8789" y="356.6973"/><text fill="#111111" font-family="Arial" font-size="12" lengthAdjust="spacing" textLength="101.3789" x="2323.5" y="376.9531">CuentaServiceImpl</text></g><!--entity TransaccionServiceImpl--><g id="elem_TransaccionServiceImpl"><rect fill="#FFFFFF" height="43.7988" rx="3" ry="3" style="stroke:#444444;stroke-width:1.0;" width="168.0449" x="2122" y="345.6973"/><rect fill="#FFFFFF" height="10" style="stroke:#444444;stroke-width:1.0;" width="15" x="2270.0449" y="350.6973"/><rect fill="#FFFFFF" height="2" style="stroke:#444444;stroke-width:1.0;" width="4" x="2268.0449" y="352.6973"/><rect fill="#FFFFFF" height="2" style="stroke:#444444;stroke-width:1.0;" width="4" x="2268.0449" y="356.6973"/><text fill="#111111" font-family="Arial" font-size="12" lengthAdjust="spacing" textLength="128.0449" x="2137" y="376.9531">TransaccionServiceImpl</text></g><!--entity ProfileServiceImpl--><g id="elem_ProfileServiceImpl"><rect fill="#FFFFFF" height="43.7988" rx="3" ry="3" style="stroke:#444444;stroke-width:1.0;" width="136.6973" x="1966.5" y="345.6973"/><rect fill="#FFFFFF" height="10" style="stroke:#444444;stroke-width:1.0;" width="15" x="2083.1973" y="350.6973"/><rect fill="#FFFFFF" height="2" style="stroke:#444444;stroke-width:1.0;" width="4" x="2081.1973" y="352.6973"/><rect fill="#FFFFFF" height="2" style="stroke:#444444;stroke-width:1.0;" width="4" x="2081.1973" y="356.6973"/><text fill="#111111" font-family="Arial" font-size="12" lengthAdjust="spacing" textLength="96.6973" x="1981.5" y="376.9531">ProfileServiceImpl</text></g><!--entity AccountSecurityServiceImpl--><g id="elem_AccountSecurityServiceImpl"><rect fill="#FFFFFF" height="43.7988" rx="3" ry="3" style="stroke:#444444;stroke-width:1.0;" width="189.3906" x="1759.5" y="345.6973"/><rect fill="#FFFFFF" height="10" style="stroke:#444444;stroke-width:1.0;" width="15" x="1928.8906" y="350.6973"/><rect fill="#FFFFFF" height="2" style="stroke:#444444;stroke-width:1.0;" width="4" x="1926.8906" y="352.6973"/><rect fill="#FFFFFF" height="2" style="stroke:#444444;stroke-width:1.0;" width="4" x="1926.8906" y="356.6973"/><text fill="#111111" font-family="Arial" font-size="12" lengthAdjust="spacing" textLength="149.3906" x="1774.5" y="376.9531">AccountSecurityServiceImpl</text></g><!--entity RefreshTokenServiceImpl--><g id="elem_RefreshTokenServiceImpl"><rect fill="#FFFFFF" height="43.7988" rx="3" ry="3" style="stroke:#444444;stroke-width:1.0;" width="178.0527" x="1563" y="345.6973"/><rect fill="#FFFFFF" height="10" style="stroke:#444444;stroke-width:1.0;" width="15" x="1721.0527" y="350.6973"/><rect fill="#FFFFFF" height="2" style="stroke:#444444;stroke-width:1.0;" width="4" x="1719.0527" y="352.6973"/><rect fill="#FFFFFF" height="2" style="stroke:#444444;stroke-width:1.0;" width="4" x="1719.0527" y="356.6973"/><text fill="#111111" font-family="Arial" font-size="12" lengthAdjust="spacing" textLength="138.0527" x="1578" y="376.9531">RefreshTokenServiceImpl</text></g><!--entity RegistroUsuarioServiceImpl--><g id="elem_RegistroUsuarioServiceImpl"><rect fill="#FFFFFF" height="43.7988" rx="3" ry="3" style="stroke:#444444;stroke-width:1.0;" width="188.7168" x="1355.5" y="345.6973"/><rect fill="#FFFFFF" height="10" style="stroke:#444444;stroke-width:1.0;" width="15" x="1524.2168" y="350.6973"/><rect fill="#FFFFFF" height="2" style="stroke:#444444;stroke-width:1.0;" width="4" x="1522.2168" y="352.6973"/><rect fill="#FFFFFF" height="2" style="stroke:#444444;stroke-width:1.0;" width="4" x="1522.2168" y="356.6973"/><text fill="#111111" font-family="Arial" font-size="12" lengthAdjust="spacing" textLength="148.7168" x="1370.5" y="376.9531">RegistroUsuarioServiceImpl</text></g><!--entity NumeroCuentaServiceImpl--><g id="elem_NumeroCuentaServiceImpl"><rect fill="#FFFFFF" height="43.7988" rx="3" ry="3" style="stroke:#444444;stroke-width:1.0;" width="184.0586" x="1153" y="345.6973"/><rect fill="#FFFFFF" height="10" style="stroke:#444444;stroke-width:1.0;" width="15" x="1317.0586" y="350.6973"/><rect fill="#FFFFFF" height="2" style="stroke:#444444;stroke-width:1.0;" width="4" x="1315.0586" y="352.6973"/><rect fill="#FFFFFF" height="2" style="stroke:#444444;stroke-width:1.0;" width="4" x="1315.0586" y="356.6973"/><text fill="#111111" font-family="Arial" font-size="12" lengthAdjust="spacing" textLength="144.0586" x="1168" y="376.9531">NumeroCuentaServiceImpl</text></g><!--entity XxxMapper--><g id="elem_XxxMapper"><rect fill="#FFFFFF" height="43.7988" rx="3" ry="3" style="stroke:#444444;stroke-width:1.0;" width="100.6914" x="738.5" y="557.6973"/><rect fill="#FFFFFF" height="10" style="stroke:#444444;stroke-width:1.0;" width="15" x="819.1914" y="562.6973"/><rect fill="#FFFFFF" height="2" style="stroke:#444444;stroke-width:1.0;" width="4" x="817.1914" y="564.6973"/><rect fill="#FFFFFF" height="2" style="stroke:#444444;stroke-width:1.0;" width="4" x="817.1914" y="568.6973"/><text fill="#111111" font-family="Arial" font-size="12" lengthAdjust="spacing" textLength="60.6914" x="753.5" y="588.9531">XxxMapper</text></g><g id="elem_GMN50"><path d="M857.5,558.6973 L857.5,575.6973 L839.6094,579.6973 L857.5,583.6973 L857.5,600.644 A3,3 0 0 0 860.5,603.644 L1033.2544,603.644 A3,3 0 0 0 1036.2544,600.644 L1036.2544,565.6973 L1026.2544,555.6973 L860.5,555.6973 A3,3 0 0 0 857.5,558.6973 " fill="#FFFFF0" style="stroke:#AAAAAA;stroke-width:0.5;"/><path d="M1026.2544,555.6973 L1026.2544,564.1973 A1.5,1.5 0 0 0 1027.7544,565.6973 L1036.2544,565.6973 L1026.2544,555.6973 " fill="#FFFFF0" style="stroke:#AAAAAA;stroke-width:0.5;"/><text fill="#000000" font-family="Arial" font-size="11" lengthAdjust="spacing" textLength="55.0269" x="863.5" y="571.0151">5 mappers:</text><text fill="#000000" font-family="Arial" font-size="11" lengthAdjust="spacing" textLength="157.7544" x="863.5" y="583.6641">Autenticacion &#183; Usuario &#183; Cuenta</text><text fill="#000000" font-family="Arial" font-size="11" lengthAdjust="spacing" textLength="100.2622" x="863.5" y="596.313">Profile &#183; Transaccion</text></g><!--entity XxxRequestDTO--><g id="elem_XxxRequestDTO"><rect fill="#FFFFFF" height="57.5977" rx="3" ry="3" style="stroke:#444444;stroke-width:1.0;" width="130.0293" x="571" y="686.6973"/><rect fill="#FFFFFF" height="10" style="stroke:#444444;stroke-width:1.0;" width="15" x="681.0293" y="691.6973"/><rect fill="#FFFFFF" height="2" style="stroke:#444444;stroke-width:1.0;" width="4" x="679.0293" y="693.6973"/><rect fill="#FFFFFF" height="2" style="stroke:#444444;stroke-width:1.0;" width="4" x="679.0293" y="697.6973"/><text fill="#111111" font-family="Arial" font-size="12" font-style="italic" lengthAdjust="spacing" textLength="38.6777" x="611.6758" y="717.9531">&#171;DTO&#187;</text><text fill="#111111" font-family="Arial" font-size="12" lengthAdjust="spacing" textLength="90.0293" x="586" y="731.752">XxxRequestDTO</text></g><!--entity XxxResponseDTO--><g id="elem_XxxResponseDTO"><rect fill="#FFFFFF" height="57.5977" rx="3" ry="3" style="stroke:#444444;stroke-width:1.0;" width="139.3691" x="719.5" y="686.6973"/><rect fill="#FFFFFF" height="10" style="stroke:#444444;stroke-width:1.0;" width="15" x="838.8691" y="691.6973"/><rect fill="#FFFFFF" height="2" style="stroke:#444444;stroke-width:1.0;" width="4" x="836.8691" y="693.6973"/><rect fill="#FFFFFF" height="2" style="stroke:#444444;stroke-width:1.0;" width="4" x="836.8691" y="697.6973"/><text fill="#111111" font-family="Arial" font-size="12" font-style="italic" lengthAdjust="spacing" textLength="38.6777" x="764.8457" y="717.9531">&#171;DTO&#187;</text><text fill="#111111" font-family="Arial" font-size="12" lengthAdjust="spacing" textLength="99.3691" x="734.5" y="731.752">XxxResponseDTO</text></g><g id="elem_GMN56"><path d="M876.5,694.6973 L876.5,711.6973 L858.8008,715.6973 L876.5,719.6973 L876.5,736.644 A3,3 0 0 0 879.5,739.644 L1032.0752,739.644 A3,3 0 0 0 1035.0752,736.644 L1035.0752,701.6973 L1025.0752,691.6973 L879.5,691.6973 A3,3 0 0 0 876.5,694.6973 " fill="#FFFFF0" style="stroke:#AAAAAA;stroke-width:0.5;"/><path d="M1025.0752,691.6973 L1025.0752,700.1973 A1.5,1.5 0 0 0 1026.5752,701.6973 L1035.0752,701.6973 L1025.0752,691.6973 " fill="#FFFFF0" style="stroke:#AAAAAA;stroke-width:0.5;"/><text fill="#000000" font-family="Arial" font-size="11" lengthAdjust="spacing" textLength="137.5752" x="882.5" y="707.0151">11 DTOs de entrada / salida</text><text fill="#000000" font-family="Arial" font-size="11" lengthAdjust="spacing" textLength="117.9976" x="882.5" y="719.6641">(Login, Registro, Profile,</text><text fill="#000000" font-family="Arial" font-size="11" lengthAdjust="spacing" textLength="111.2461" x="882.5" y="732.313">Movimiento, Cierre, ...)</text></g><!--entity XxxRepository--><g id="elem_XxxRepository"><rect fill="#FFFFFF" height="43.7988" rx="3" ry="3" style="stroke:#444444;stroke-width:1.0;" width="117.3613" x="1061.5" y="557.6973"/><rect fill="#FFFFFF" height="10" style="stroke:#444444;stroke-width:1.0;" width="15" x="1158.8613" y="562.6973"/><rect fill="#FFFFFF" height="2" style="stroke:#444444;stroke-width:1.0;" width="4" x="1156.8613" y="564.6973"/><rect fill="#FFFFFF" height="2" style="stroke:#444444;stroke-width:1.0;" width="4" x="1156.8613" y="568.6973"/><text fill="#111111" font-family="Arial" font-size="12" lengthAdjust="spacing" textLength="77.3613" x="1076.5" y="588.9531">XxxRepository</text></g><g id="elem_GMN61"><path d="M1196.5,552.1973 L1196.5,575.6973 L1178.5,579.6973 L1196.5,583.6973 L1196.5,606.793 A3,3 0 0 0 1199.5,609.793 L1352.6714,609.793 A3,3 0 0 0 1355.6714,606.793 L1355.6714,559.1973 L1345.6714,549.1973 L1199.5,549.1973 A3,3 0 0 0 1196.5,552.1973 " fill="#FFFFF0" style="stroke:#AAAAAA;stroke-width:0.5;"/><path d="M1345.6714,549.1973 L1345.6714,557.6973 A1.5,1.5 0 0 0 1347.1714,559.1973 L1355.6714,559.1973 L1345.6714,549.1973 " fill="#FFFFF0" style="stroke:#AAAAAA;stroke-width:0.5;"/><text fill="#000000" font-family="Arial" font-size="11" lengthAdjust="spacing" textLength="69.0884" x="1202.5" y="564.5151">7 repositories:</text><text fill="#000000" font-family="Arial" font-size="11" lengthAdjust="spacing" textLength="125.9521" x="1202.5" y="577.1641">Cliente &#183; Usuario &#183; Cuenta</text><text fill="#000000" font-family="Arial" font-size="11" lengthAdjust="spacing" textLength="138.1714" x="1202.5" y="589.813">Transaccion &#183; Rol &#183; Auditoria</text><text fill="#000000" font-family="Arial" font-size="11" lengthAdjust="spacing" textLength="69.0884" x="1202.5" y="602.4619">RefreshToken</text></g><!--entity XxxEntity--><g id="elem_XxxEntity"><rect fill="#FFFFFF" height="57.5977" rx="3" ry="3" style="stroke:#444444;stroke-width:1.0;" width="90.0156" x="1060" y="686.6973"/><rect fill="#FFFFFF" height="10" style="stroke:#444444;stroke-width:1.0;" width="15" x="1130.0156" y="691.6973"/><rect fill="#FFFFFF" height="2" style="stroke:#444444;stroke-width:1.0;" width="4" x="1128.0156" y="693.6973"/><rect fill="#FFFFFF" height="2" style="stroke:#444444;stroke-width:1.0;" width="4" x="1128.0156" y="697.6973"/><text fill="#111111" font-family="Arial" font-size="12" font-style="italic" lengthAdjust="spacing" textLength="42.0293" x="1078.9932" y="717.9531">&#171;entity&#187;</text><text fill="#111111" font-family="Arial" font-size="12" lengthAdjust="spacing" textLength="50.0156" x="1075" y="731.752">XxxEntity</text></g><g id="elem_GMN66"><path d="M1168.5,682.1973 L1168.5,711.6973 L1150.2461,715.6973 L1168.5,719.6973 L1168.5,749.4419 A3,3 0 0 0 1171.5,752.4419 L1324.6714,752.4419 A3,3 0 0 0 1327.6714,749.4419 L1327.6714,689.1973 L1317.6714,679.1973 L1171.5,679.1973 A3,3 0 0 0 1168.5,682.1973 " fill="#FFFFF0" style="stroke:#AAAAAA;stroke-width:0.5;"/><path d="M1317.6714,679.1973 L1317.6714,687.6973 A1.5,1.5 0 0 0 1319.1714,689.1973 L1327.6714,689.1973 L1317.6714,679.1973 " fill="#FFFFF0" style="stroke:#AAAAAA;stroke-width:0.5;"/><text fill="#000000" font-family="Arial" font-size="11" lengthAdjust="spacing" textLength="83.166" x="1174.5" y="694.5151">7 entidades JPA:</text><text fill="#000000" font-family="Arial" font-size="11" lengthAdjust="spacing" textLength="125.9521" x="1174.5" y="707.1641">Cliente &#183; Usuario &#183; Cuenta</text><text fill="#000000" font-family="Arial" font-size="11" lengthAdjust="spacing" textLength="138.1714" x="1174.5" y="719.813">Transaccion &#183; Rol &#183; Auditoria</text><text fill="#000000" font-family="Arial" font-size="11" lengthAdjust="spacing" textLength="69.0884" x="1174.5" y="732.4619">RefreshToken</text><text fill="#000000" font-family="Arial" font-size="11" lengthAdjust="spacing" textLength="93.8652" x="1174.5" y="745.1108">+ 6 enumeraciones</text></g><polygon fill="none" points="936.2061,459.6406,953.926,452.8579,946.3124,443.5825,936.2061,459.6406" style="stroke:#444444;stroke-width:1.0;"/><path d="M1021.257,389.828 C994.5366,411.761 968.0975,433.463 950.1192,448.2202 " fill="none" style="stroke:#444444;stroke-width:1.0;stroke-dasharray:7.0,7.0;"/><text fill="#333333" font-family="Arial" font-size="11" lengthAdjust="spacing" textLength="62.3745" x="982" y="434.5151">&#171;realization&#187;</text><polygon fill="none" points="832.0199,455.9595,844.8396,441.9719,833.8831,437.0776,832.0199,455.9595" style="stroke:#444444;stroke-width:1.0;"/><path d="M861.4527,390.0703 C852.4042,410.3264 846.5068,423.5287 839.3613,439.5247 " fill="none" style="stroke:#444444;stroke-width:1.0;stroke-dasharray:7.0,7.0;"/><text fill="#333333" font-family="Arial" font-size="11" lengthAdjust="spacing" textLength="62.3745" x="849" y="434.5151">&#171;realization&#187;</text><polygon fill="none" points="2379,455.9595,2385,437.9595,2373,437.9595,2379,455.9595" style="stroke:#444444;stroke-width:1.0;"/><path d="M2379,390.0703 C2379,410.3264 2379,421.9635 2379,437.9595 " fill="none" style="stroke:#444444;stroke-width:1.0;stroke-dasharray:7.0,7.0;"/><text fill="#333333" font-family="Arial" font-size="11" lengthAdjust="spacing" textLength="62.3745" x="2381" y="434.5151">&#171;realization&#187;</text><polygon fill="none" points="2206,455.9595,2212,437.9595,2200,437.9595,2206,455.9595" style="stroke:#444444;stroke-width:1.0;"/><path d="M2206,390.0703 C2206,410.3264 2206,421.9635 2206,437.9595 " fill="none" style="stroke:#444444;stroke-width:1.0;stroke-dasharray:7.0,7.0;"/><text fill="#333333" font-family="Arial" font-size="11" lengthAdjust="spacing" textLength="62.3745" x="2208" y="434.5151">&#171;realization&#187;</text><polygon fill="none" points="2035,455.9595,2041,437.9595,2029,437.9595,2035,455.9595" style="stroke:#444444;stroke-width:1.0;"/><path d="M2035,390.0703 C2035,410.3264 2035,421.9635 2035,437.9595 " fill="none" style="stroke:#444444;stroke-width:1.0;stroke-dasharray:7.0,7.0;"/><text fill="#333333" font-family="Arial" font-size="11" lengthAdjust="spacing" textLength="62.3745" x="2037" y="434.5151">&#171;realization&#187;</text><polygon fill="none" points="1854,455.9595,1860,437.9595,1848,437.9595,1854,455.9595" style="stroke:#444444;stroke-width:1.0;"/><path d="M1854,390.0703 C1854,410.3264 1854,421.9635 1854,437.9595 " fill="none" style="stroke:#444444;stroke-width:1.0;stroke-dasharray:7.0,7.0;"/><text fill="#333333" font-family="Arial" font-size="11" lengthAdjust="spacing" textLength="62.3745" x="1856" y="434.5151">&#171;realization&#187;</text><polygon fill="none" points="1652,455.9595,1658,437.9595,1646,437.9595,1652,455.9595" style="stroke:#444444;stroke-width:1.0;"/><path d="M1652,390.0703 C1652,410.3264 1652,421.9635 1652,437.9595 " fill="none" style="stroke:#444444;stroke-width:1.0;stroke-dasharray:7.0,7.0;"/><text fill="#333333" font-family="Arial" font-size="11" lengthAdjust="spacing" textLength="62.3745" x="1654" y="434.5151">&#171;realization&#187;</text><polygon fill="none" points="1450,455.9595,1456,437.9595,1444,437.9595,1450,455.9595" style="stroke:#444444;stroke-width:1.0;"/><path d="M1450,390.0703 C1450,410.3264 1450,421.9635 1450,437.9595 " fill="none" style="stroke:#444444;stroke-width:1.0;stroke-dasharray:7.0,7.0;"/><text fill="#333333" font-family="Arial" font-size="11" lengthAdjust="spacing" textLength="62.3745" x="1452" y="434.5151">&#171;realization&#187;</text><polygon fill="none" points="1245,455.9595,1251,437.9595,1239,437.9595,1245,455.9595" style="stroke:#444444;stroke-width:1.0;"/><path d="M1245,390.0703 C1245,410.3264 1245,421.9635 1245,437.9595 " fill="none" style="stroke:#444444;stroke-width:1.0;stroke-dasharray:7.0,7.0;"/><text fill="#333333" font-family="Arial" font-size="11" lengthAdjust="spacing" textLength="62.3745" x="1247" y="434.5151">&#171;realization&#187;</text><polygon fill="#444444" points="212,215.9487,216,206.9487,212,210.9487,208,206.9487,212,215.9487" style="stroke:#444444;stroke-width:1.0;"/><path d="M212,132.5053 C212,159.0365 212,187.9132 212,209.9487 " fill="none" style="stroke:#444444;stroke-width:1.0;"/><text fill="#333333" font-family="Arial" font-size="11" lengthAdjust="spacing" textLength="72.7461" x="214.0054" y="162.5151">HTTP Request</text><text fill="#333333" font-family="Arial" font-size="11" lengthAdjust="spacing" textLength="72.7568" x="214" y="175.1641">[Bearer Token]</text><polygon fill="#444444" points="224.5194,345.612,227.4404,336.2062,223.9352,340.6462,219.4952,337.141,224.5194,345.612" style="stroke:#444444;stroke-width:1.0;"/><path d="M214.4769,260.2513 C217.2562,283.875 221.0376,316.0166 223.8183,339.6531 " fill="none" style="stroke:#444444;stroke-width:1.0;stroke-dasharray:7.0,7.0;"/><text fill="#333333" font-family="Arial" font-size="11" lengthAdjust="spacing" textLength="58.7061" x="221" y="292.5151">valida token</text><polygon fill="#444444" points="670.4576,345.4031,665.9322,336.6555,666.5546,342.278,660.9321,342.9004,670.4576,345.4031" style="stroke:#444444;stroke-width:1.0;"/><path d="M254.5248,240.2463 C328.2746,243.3573 483.5485,255.658 604,304.1973 C628.532,314.0831 648.3753,327.7225 665.774,341.653 " fill="none" style="stroke:#444444;stroke-width:1.0;"/><text fill="#333333" font-family="Arial" font-size="11" lengthAdjust="spacing" textLength="96.626" x="576" y="292.5151">request autenticada</text><polygon fill="#444444" points="340.6013,345.5698,338.8882,335.8711,337.8068,341.4236,332.2543,340.3423,340.6013,345.5698" style="stroke:#444444;stroke-width:1.0;"/><path d="M254.7432,259.5723 C265.1658,265.4956 275.9191,272.4768 285,280.1973 C307.5386,299.3593 324.5766,321.794 337.2479,340.5944 " fill="none" style="stroke:#444444;stroke-width:1.0;"/><polygon fill="#444444" points="695,345.612,699,336.612,695,340.612,691,336.612,695,345.612" style="stroke:#444444;stroke-width:1.0;"/><path d="M695,260.2513 C695,283.875 695,315.9755 695,339.612 " fill="none" style="stroke:#444444;stroke-width:1.0;stroke-dasharray:7.0,7.0;"/><text fill="#333333" font-family="Arial" font-size="11" lengthAdjust="spacing" textLength="48.9253" x="697" y="292.5151">&#171;captura&#187;</text><polygon fill="#444444" points="917.7207,466.0918,909.3116,460.9646,912.7624,465.4471,908.28,468.8978,917.7207,466.0918" style="stroke:#444444;stroke-width:1.0;"/><path d="M722.2388,389.7461 C743.4611,405.2059 774.2279,425.6245 804,438.1973 C844.4227,455.2678 890.8083,462.5921 911.7708,465.3181 " fill="none" style="stroke:#444444;stroke-width:1.0;stroke-dasharray:7.0,7.0;"/><text fill="#333333" font-family="Arial" font-size="11" lengthAdjust="spacing" textLength="29.9707" x="806" y="434.5151">&#171;use&#187;</text><polygon fill="#444444" points="817.9965,467.244,808.9965,463.244,812.9965,467.244,808.9965,471.244,817.9965,467.244" style="stroke:#444444;stroke-width:1.0;"/><path d="M383.6427,389.7581 C396.6738,398.0325 412.5142,406.8201 428,412.1973 C577.2887,464.0348 767.9533,467.2069 811.9965,467.2396 " fill="none" style="stroke:#444444;stroke-width:1.0;stroke-dasharray:7.0,7.0;"/><text fill="#333333" font-family="Arial" font-size="11" lengthAdjust="spacing" textLength="29.9707" x="515" y="434.5151">&#171;use&#187;</text><polygon fill="#444444" points="809.2206,557.6454,818.4113,554.1055,812.7545,554.1082,812.7518,548.4513,809.2206,557.6454" style="stroke:#444444;stroke-width:1.0;"/><path d="M917.8796,474.5999 C902.7947,483.6902 871.938,502.9447 848,522.1973 C834.4067,533.1299 824.4962,542.3553 813.4612,553.4008 " fill="none" style="stroke:#444444;stroke-width:1.0;stroke-dasharray:7.0,7.0;"/><text fill="#333333" font-family="Arial" font-size="11" lengthAdjust="spacing" textLength="77.6392" x="882" y="510.5151">Entidad &#8596; DTO</text><polygon fill="#444444" points="1096.8307,557.6931,1092.5942,548.8019,1093.0321,554.4418,1087.3922,554.8797,1096.8307,557.6931" style="stroke:#444444;stroke-width:1.0;"/><path d="M936.2762,472.2816 C957.2163,479.4426 1009.4097,498.4122 1049,522.1973 C1066.0143,532.4191 1078.9215,542.3644 1092.2724,553.7915 " fill="none" style="stroke:#444444;stroke-width:1.0;stroke-dasharray:7.0,7.0;"/><text fill="#333333" font-family="Arial" font-size="11" lengthAdjust="spacing" textLength="88.6553" x="1036" y="510.5151">consulta / persiste</text><polygon fill="#444444" points="663.1657,686.4442,672.336,682.8519,666.6793,682.8868,666.6443,677.2301,663.1657,686.4442" style="stroke:#444444;stroke-width:1.0;"/><path d="M758.7328,601.8925 C747.8529,609.8391 735.6454,619.1427 725,628.1973 C703.335,646.6246 684.566,664.7776 667.382,682.1754 " fill="none" style="stroke:#444444;stroke-width:1.0;stroke-dasharray:7.0,7.0;"/><text fill="#333333" font-family="Arial" font-size="11" lengthAdjust="spacing" textLength="56.8691" x="727" y="640.5151">&#171;consume&#187;</text><polygon fill="#444444" points="789,686.572,793,677.572,789,681.572,785,677.572,789,686.572" style="stroke:#444444;stroke-width:1.0;"/><path d="M789,601.93 C789,624.8072 789,655.3212 789,680.572 " fill="none" style="stroke:#444444;stroke-width:1.0;stroke-dasharray:7.0,7.0;"/><text fill="#333333" font-family="Arial" font-size="11" lengthAdjust="spacing" textLength="51.9868" x="791" y="640.5151">&#171;produce&#187;</text><polygon fill="#444444" points="1085.918,686.3918,1083.4579,676.8552,1082.8104,682.4748,1077.1907,681.8273,1085.918,686.3918" style="stroke:#444444;stroke-width:1.0;"/><path d="M817.1856,601.8207 C826.5691,607.9564 837.3522,614.1006 848,618.1973 C932.1507,650.5737 968.8688,608.9789 1048,652.1973 C1062.9507,660.3628 1072.3266,669.2605 1082.1888,681.6914 " fill="none" style="stroke:#444444;stroke-width:1.0;stroke-dasharray:7.0,7.0;"/><text fill="#333333" font-family="Arial" font-size="11" lengthAdjust="spacing" textLength="64.8076" x="1032" y="640.5151">&#171;transforma&#187;</text><polygon fill="#444444" points="1108.1483,686.572,1113.1247,678.0729,1108.7046,681.6031,1105.1744,677.1829,1108.1483,686.572" style="stroke:#444444;stroke-width:1.0;"/><path d="M1117.6232,601.93 C1115.0623,624.8072 1111.6424,655.3584 1108.8158,680.6093 " fill="none" style="stroke:#444444;stroke-width:1.0;stroke-dasharray:7.0,7.0;"/><text fill="#333333" font-family="Arial" font-size="11" lengthAdjust="spacing" textLength="40.3691" x="1117" y="640.5151">&#171;opera&#187;</text><polygon fill="#444444" points="1378.9678,693.5672,1377.4291,683.8392,1376.2482,689.3715,1370.716,688.1906,1378.9678,693.5672" style="stroke:#444444;stroke-width:1.0;"/><path d="M1153.153,601.7669 C1163.6663,607.7533 1175.542,613.8259 1187,618.1973 C1252.0832,643.0271 1280.7062,615.6379 1340,652.1973 C1356.4509,662.3406 1366.7221,674.6751 1375.7043,688.5323 " fill="none" style="stroke:#444444;stroke-width:1.0;"/><text fill="#333333" font-family="Arial" font-size="11" lengthAdjust="spacing" textLength="81.3184" x="1326" y="640.5151">Spring Data JPA</text><!--SRC=[lLdDSjis4BxpARRk8SaqKQ8uFwr7zGn5KOaoZgIAJ2UT90UOX6JK5A60e6EdxKnEVOAyIG-zjs-I9-a212MI0dqnKqGUYRlVBfQxYyK2-MOZo6fD825NF9UGhQaaAN4atu3aSCgbv6k8cQ2HP3nr7CbaGc5mUZnYP2K8IiOKvkHzJYNDu0eyljxmbARgwSkdpx2W964VIOJ2D1lSFpr-cmv96d4OiHMJ9D6W5-I2GFyf_FCt11l1qXKCEPTmg0XpdicLeC5F9uwJdRDqGt1M-Cq169BeV2LudiOUJxY0RyTw86T4boHFv9YdSahM55p1I5Ad1-mZXVv31wck4Fo3KV58ZvAeW8Png4ULKMZebwJmZ4Nd-8uPz9NIEHf7LdJVHbVzgm2uYAampCTwD9axpGztB6s1lC9OdF8aRj2rPO_gH3D5NmzbuJPIxNxSGQfMRdtKO5SzK65MlTqWxzaqmRmHInBHTfjs4AjDMtPzsXfvRzeHaUIKPDVCkaLK9ztcHCdTpNce4okINDWbDAi1dtBPOi63ablLvUfXEDM4H59mHcB-GIsa9KaoYfH5eLEaLC0Jvm_7kGK_tc2WkEk5iyLDrH3b1pZm4gPA1ZmFm_a1a4p_wC36mFTUBIRXBpVLj2dM4HnaDCe5arS7EZA7_WDTYQ8ogU7Dc2LIy1SVvBiw7Icl94iKDSLubPMLBniY0D_X6acNR9KBNJK3YhzOJ6B3V9NbH30-mZgT93GBgBXWaOemJMEjkfFWUhDfk9YTdFYBpbmNOOeAZZOBvRp- -7l_XwRpt5pYDulqYtjRVCEL9bdgVErKmLPdKllKYj6-pP5ETdH33WL9CnBLvpMykU1Bbj0zkXj5kAXaO59YZx-WAvOXoKIinkyqMFvhpv-7azcqirZHouXkr8QlGkNvZtol6Qfd2JybYL_YdfCqjaUY7GXOzq3FL7G7gfD8wOhZa-RUfhyUWGdabFkfJY2iQrjTTpKivESqdQGNs6TKUT3hzUvqxUd0N_myyNpGNKj6OPrJZ319iLUAUGO9_c5_KhoAA3kVV_zAEwm_UhbZMFp3ySFnI8U5bPiR7DHMK522SM1DdGGN4VBFwXB6mLLiCOo4uJU4z2hQbzaAQNvTfhB4we969hoiuysoQpNCy1llNr-JEs4ZX8owm88kCLvdEebgKna1msyArLRstYp8hmjCypKLtE8r8u1yvvfIQ4GcwqrYhuNN0AfpMlZxKR60wg6m0Enkjm0jxhQYRFwr02r-BL08kmLVFd_2J_q8OeZ__mSjQW-gIeLUx_TZs2vIHJc2mS1K4LNIZe-L3al4TqjZfwFigEmwzXm6LXqQrc97I-8qTOIN1SMgmv9NDZiCpAxZcjIhwa1-knrjMTcmmy3QTBJcR5t7gjsEjdHks86m5XrTx74ltVcymxPlJJORtVBv8__f-4cpZtXzUVbI8oojGuq7y1WANTcHVgmj9dLJO3olVcxt7oYxDqMjf6pNZS4ed7NciLXovIxF7u_x5dSjw7lLTU2Cc1U30Nxhv6c2CdpAg4RjGFiEhWABdgolNaPtC5JtMmJkGwQQgyAVjq_uYc5xLURxtTB3HJVsab-mjIezoF0O5O9-dKviuSzdmGHFeDsTxGJTy8pXUTISxZ1VhUulKUzQ75hb0po5hLv6JUgMnRarQIkPgZWBdgWlDu-rcW9JBLgTdoYcOPUdPhLEzPdPxuyVZtsBLtsDKAbQO5korS2COnKK3yQugR-Okr_Fi-eizmGdKyNPT15T-tle1ZwCyEE6i-2cwc9p6uKjzFRkL5-gZ8QTBBmJryEpfX-eB5duuBbpDy2wm5OvIG1h4z04ul9s69sAvO8aTsuwiwEkX7RTmRrxk1bMhawWFexq3HAOMlasVJEaU2uJnM7ndLCNxFMKhlA61lPKwQCbmJEUoeU6R657syK52el2120b1EkeJONbni9fEpmRYw-PTJ28o4RcWk12Sjg1Ma-pvSmpYb8MWxQDcQN7B8ISggxIiRjjl7IeNonS-FBdPxrpjaXLIgcImlD_bYTIxKUg2y3TX-AxrRHNH2kRf7Q74bxh5skJgEoOIc8ZU9n7rqYKDMlRYwcRW6p9nRhmUkCDR79AYgDUOcQflR7EYz6mdelc_qVKZREgUiv_]--></g></svg>