<svg xmlns="http://www.w3.org/2000/svg" xmlns:xlink="http://www.w3.org/1999/xlink" contentStyleType="text/css" height="767px" preserveAspectRatio="none" style="width:1262px;height:767px;background:#FFFFFF;" version="1.1" viewBox="0 0 1262 767" width="1262px" zoomAndPan="magnify"><title>&lt;b&gt;Diagrama de Paquetes y Componentes&lt;/b&gt;</title><defs/><g><text fill="#000000" font-family="Arial" font-size="14" font-weight="bold" lengthAdjust="spacing" textLength="259.0752" x="488.7124" y="23.1318">Diagrama de Paquetes y Componentes</text><text fill="#000000" font-family="Arial" font-size="14" font-weight="bold" lengthAdjust="spacing" textLength="357.8545" x="439.3228" y="39.2305">Banco Digital &#8212; Java 17 &#183; Spring Boot 3 &#183; PostgreSQL</text><!--cluster security--><g id="cluster_security"><path d="M17,189.1973 L70.6963,189.1973 A4.5,4.5 0 0 1 73.6963,192.1973 L80.6963,211.2959 L270,211.2959 A3,3 0 0 1 273,214.2959 L273,394.6973 A3,3 0 0 1 270,397.6973 L17,397.6973 A3,3 0 0 1 14,394.6973 L14,192.1973 A3,3 0 0 1 17,189.1973 " fill="#FFF3E0" style="stroke:#555555;stroke-width:2.0;"/><line style="stroke:#555555;stroke-width:2.0;" x1="14" x2="80.6963" y1="211.2959" y2="211.2959"/><text fill="#111111" font-family="Arial" font-size="14" font-weight="bold" lengthAdjust="spacing" textLength="53.6963" x="18" y="204.3291">security</text></g><!--cluster controller--><g id="cluster_controller"><path d="M284,304.1973 L348.5654,304.1973 A4.5,4.5 0 0 1 351.5654,307.1973 L358.5654,326.2959 L782,326.2959 A3,3 0 0 1 785,329.2959 L785,409.1973 A3,3 0 0 1 782,412.1973 L284,412.1973 A3,3 0 0 1 281,409.1973 L281,307.1973 A3,3 0 0 1 284,304.1973 " fill="#F1F8E9" style="stroke:#555555;stroke-width:2.0;"/><line style="stroke:#555555;stroke-width:2.0;" x1="281" x2="358.5654" y1="326.2959" y2="326.2959"/><text fill="#111111" font-family="Arial" font-size="14" font-weight="bold" lengthAdjust="spacing" textLength="64.5654" x="285" y="319.3291">controller</text></g><!--cluster exception--><g id="cluster_exception"><path d="M605,187.1973 L670.3516,187.1973 A4.5,4.5 0 0 1 673.3516,190.1973 L680.3516,209.2959 L998,209.2959 A3,3 0 0 1 1001,212.2959 L1001,267.1973 A3,3 0 0 1 998,270.1973 L605,270.1973 A3,3 0 0 1 602,267.1973 L602,190.1973 A3,3 0 0 1 605,187.1973 " fill="#FCE4EC" style="stroke:#555555;stroke-width:2.0;"/><line style="stroke:#555555;stroke-width:2.0;" x1="602" x2="680.3516" y1="209.2959" y2="209.2959"/><text fill="#111111" font-family="Arial" font-size="14" font-weight="bold" lengthAdjust="spacing" textLength="65.3516" x="606" y="202.3291">exception</text></g><!--cluster service--><g id="cluster_service"><path d="M796,310.1973 L844.2686,310.1973 A4.5,4.5 0 0 1 847.2686,313.1973 L854.2686,332.2959 L1210,332.2959 A3,3 0 0 1 1213,335.2959 L1213,485.1973 A3,3 0 0 1 1210,488.1973 L796,488.1973 A3,3 0 0 1 793,485.1973 L793,313.1973 A3,3 0 0 1 796,310.1973 " fill="#E3F2FD" style="stroke:#555555;stroke-width:2.0;"/><line style="stroke:#555555;stroke-width:2.0;" x1="793" x2="854.2686" y1="332.2959" y2="332.2959"/><text fill="#111111" font-family="Arial" font-size="14" font-weight="bold" lengthAdjust="spacing" textLength="48.2686" x="797" y="325.3291">service</text></g><!--cluster mapper--><g id="cluster_mapper"><path d="M542,528.6973 L592.5723,528.6973 A4.5,4.5 0 0 1 595.5723,531.6973 L602.5723,550.7959 L851,550.7959 A3,3 0 0 1 854,553.7959 L854,608.6973 A3,3 0 0 1 851,611.6973 L542,611.6973 A3,3 0 0 1 539,608.6973 L539,531.6973 A3,3 0 0 1 542,528.6973 " fill="#EDE7F6" style="stroke:#555555;stroke-width:2.0;"/><line style="stroke:#555555;stroke-width:2.0;" x1="539" x2="602.5723" y1="550.7959" y2="550.7959"/><text fill="#111111" font-family="Arial" font-size="14" font-weight="bold" lengthAdjust="spacing" textLength="50.5723" x="543" y="543.8291">mapper</text></g><!--cluster dto--><g id="cluster_dto"><path d="M375,659.6973 L396.7656,659.6973 A4.5,4.5 0 0 1 399.7656,662.6973 L406.7656,681.7959 L850,681.7959 A3,3 0 0 1 853,684.7959 L853,749.6973 A3,3 0 0 1 850,752.6973 L375,752.6973 A3,3 0 0 1 372,749.6973 L372,662.6973 A3,3 0 0 1 375,659.6973 " fill="#ECEFF1" style="stroke:#555555;stroke-width:2.0;"/><line style="stroke:#555555;stroke-width:2.0;" x1="372" x2="406.7656" y1="681.7959" y2="681.7959"/><text fill="#111111" font-family="Arial" font-size="14" font-weight="bold" lengthAdjust="spacing" textLength="21.7656" x="376" y="674.8291">dto</text></g><!--cluster repository--><g id="cluster_repository"><path d="M865,522.1973 L933.4619,522.1973 A4.5,4.5 0 0 1 936.4619,525.1973 L943.4619,544.2959 L1170,544.2959 A3,3 0 0 1 1173,547.2959 L1173,615.1973 A3,3 0 0 1 1170,618.1973 L865,618.1973 A3,3 0 0 1 862,615.1973 L862,525.1973 A3,3 0 0 1 865,522.1973 " fill="#FFFDE7" style="stroke:#555555;stroke-width:2.0;"/><line style="stroke:#555555;stroke-width:2.0;" x1="862" x2="943.4619" y1="544.2959" y2="544.2959"/><text fill="#111111" font-family="Arial" font-size="14" font-weight="bold" lengthAdjust="spacing" textLength="68.4619" x="866" y="537.3291">repository</text></g><!--cluster entity--><g id="cluster_entity"><path d="M864,652.1973 L901.3379,652.1973 A4.5,4.5 0 0 1 904.3379,655.1973 L911.3379,674.2959 L1142,674.2959 A3,3 0 0 1 1145,677.2959 L1145,757.1973 A3,3 0 0 1 1142,760.1973 L864,760.1973 A3,3 0 0 1 861,757.1973 L861,655.1973 A3,3 0 0 1 864,652.1973 " fill="#E1F5FE" style="stroke:#555555;stroke-width:2.0;"/><line style="stroke:#555555;stroke-width:2.0;" x1="861" x2="911.3379" y1="674.2959" y2="674.2959"/><text fill="#111111" font-family="Arial" font-size="14" font-weight="bold" lengthAdjust="spacing" textLength="37.3379" x="865" y="667.3291">entity</text></g><!--entity HTTP--><g id="elem_HTTP"><ellipse cx="212.0095" cy="65.6973" fill="#F1F1F1" rx="8" ry="8" style="stroke:#333333;stroke-width:0.5;"/><path d="M212.0095,73.6973 L212.0095,100.6973 M199.0095,81.6973 L225.0095,81.6973 M212.0095,100.6973 L199.0095,115.6973 M212.0095,100.6973 L225.0095,115.6973 " fill="none" style="stroke:#333333;stroke-width:0.5;"/><text fill="#000000" font-family="Arial" font-size="13" lengthAdjust="spacing" textLength="78.019" x="173" y="129.3911">Cliente HTTP</text></g><!--entity DB--><g id="elem_DB"><path d="M1154.5,703.6973 C1154.5,693.6973 1199.9072,693.6973 1199.9072,693.6973 C1199.9072,693.6973 1245.3145,693.6973 1245.3145,703.6973 L1245.3145,727.646 C1245.3145,737.646 1199.9072,737.646 1199.9072,737.646 C1199.9072,737.646 1154.5,737.646 1154.5,727.646 L1154.5,703.6973 " fill="#FFFFFF" style="stroke:#333333;stroke-width:0.5;"/><path d="M1154.5,703.6973 C1154.5,713.6973 1199.9072,713.6973 1199.9072,713.6973 C1199.9072,713.6973 1245.3145,713.6973 1245.3145,703.6973 " fill="none" style="stroke:#333333;stroke-width:0.5;"/><text fill="#000000" font-family="Arial" font-size="13" lengthAdjust="spacing" textLength="70.8145" x="1164.5" y="729.8911">PostgreSQL</text></g><!--entity FiltroJwt--><g id="elem_FiltroJwt"><rect fill="#FFFFFF" height="43.7988" rx="3" ry="3" style="stroke:#444444;stroke-width:1.0;" width="84.666" x="169.5" y="216.1973"/><rect fill="#FFFFFF" height="10" style="stroke:#444444;stroke-width:1.0;" width="15" x="234.166" y="221.1973"/><rect fill="#FFFFFF" height="2" style="stroke:#444444;stroke-width:1.0;" width="4" x="232.166" y="223.1973"/><rect fill="#FFFFFF" height="2" style="stroke:#444444;stroke-width:1.0;" width="4" x="232.166" y="227.1973"/><text fill="#111111" font-family="Arial" font-size="12" lengthAdjust="spacing" textLength="44.666" x="184.5" y="247.4531">FiltroJwt</text></g><!--entity JwtUtil--><g id="elem_JwtUtil"><rect fill="#FFFFFF" height="43.7988" rx="3" ry="3" style="stroke:#444444;stroke-width:1.0;" width="75.332" x="189.5" y="345.6973"/><rect fill="#FFFFFF" height="10" style="stroke:#444444;stroke-width:1.0;" width="15" x="244.832" y="350.6973"/><rect fill="#FFFFFF" height="2" style="stroke:#444444;stroke-width:1.0;" width="4" x="242.832" y="352.6973"/><rect fill="#FFFFFF" height="2" style="stroke:#444444;stroke-width:1.0;" width="4" x="242.832" y="356.6973"/><text fill="#111111" font-family="Arial" font-size="12" lengthAdjust="spacing" textLength="35.332" x="204.5" y="376.9531">JwtUtil</text></g><g id="elem_GMN6"><path d="M22.5,353.1973 L22.5,382.4951 A3,3 0 0 0 25.5,385.4951 L168.0044,385.4951 A3,3 0 0 0 171.0044,382.4951 L171.0044,360.1973 L161.0044,350.1973 L115.9826,350.1973 L193.0101,260.2513 L107.9826,350.1973 L25.5,350.1973 A3,3 0 0 0 22.5,353.1973 " fill="#FFFFF0" style="stroke:#AAAAAA;stroke-width:0.5;"/><path d="M161.0044,350.1973 L161.0044,358.6973 A1.5,1.5 0 0 0 162.5044,360.1973 L171.0044,360.1973 L161.0044,350.1973 " fill="#FFFFF0" style="stroke:#AAAAAA;stroke-width:0.5;"/><text fill="#000000" font-family="Arial" font-size="11" lengthAdjust="spacing" textLength="127.5044" x="28.5" y="365.5151">+ ConfiguracionSeguridad</text><text fill="#000000" font-family="Arial" font-size="11" lengthAdjust="spacing" textLength="123.8037" x="28.5" y="378.1641">+ UsuarioDetallesService</text></g><!--entity AutenticacionController--><g id="elem_AutenticacionController"><rect fill="#FFFFFF" height="43.7988" rx="3" ry="3" style="stroke:#444444;stroke-width:1.0;" width="164.0664" x="613" y="345.6973"/><rect fill="#FFFFFF" height="10" style="stroke:#444444;stroke-width:1.0;" width="15" x="757.0664" y="350.6973"/><rect fill="#FFFFFF" height="2" style="stroke:#444444;stroke-width:1.0;" width="4" x="755.0664" y="352.6973"/><rect fill="#FFFFFF" height="2" style="stroke:#444444;stroke-width:1.0;" width="4" x="755.0664" y="356.6973"/><text fill="#111111" font-family="Arial" font-size="12" lengthAdjust="spacing" textLength="124.0664" x="628" y="376.9531">AutenticacionController</text></g><!--entity ClienteController--><g id="elem_ClienteController"><rect fill="#FFFFFF" height="43.7988" rx="3" ry="3" style="stroke:#444444;stroke-width:1.0;" width="129.373" x="289.5" y="345.6973"/><rect fill="#FFFFFF" height="10" style="stroke:#444444;stroke-width:1.0;" width="15" x="398.873" y="350.6973"/><rect fill="#FFFFFF" height="2" style="stroke:#444444;stroke-width:1.0;" width="4" x="396.873" y="352.6973"/><rect fill="#FFFFFF" height="2" style="stroke:#444444;stroke-width:1.0;" width="4" x="396.873" y="356.6973"/><text fill="#111111" font-family="Arial" font-size="12" lengthAdjust="spacing" textLength="89.373" x="304.5" y="376.9531">ClienteController</text></g><g id="elem_GMN12"><path d="M437,334.1973 L437,363.6973 L418.5469,367.6973 L437,371.6973 L437,401.4419 A3,3 0 0 0 440,404.4419 L591.646,404.4419 A3,3 0 0 0 594.646,401.4419 L594.646,341.1973 L584.646,331.1973 L440,331.1973 A3,3 0 0 0 437,334.1973 " fill="#FFFFF0" style="stroke:#AAAAAA;stroke-width:0.5;"/><path d="M584.646,331.1973 L584.646,339.6973 A1.5,1.5 0 0 0 586.146,341.1973 L594.646,341.1973 L584.646,331.1973 " fill="#FFFFF0" style="stroke:#AAAAAA;stroke-width:0.5;"/><text fill="#000000" font-family="Arial" font-size="11" lengthAdjust="spacing" textLength="92.6353" x="443" y="346.5151">+ CuentaController</text><text fill="#000000" font-family="Arial" font-size="11" lengthAdjust="spacing" textLength="117.0791" x="443" y="359.1641">+ TransaccionController</text><text fill="#000000" font-family="Arial" font-size="11" lengthAdjust="spacing" textLength="88.3438" x="443" y="371.813">+ ProfileController</text><text fill="#000000" font-family="Arial" font-size="11" lengthAdjust="spacing" textLength="136.646" x="443" y="384.4619">+ AccountSecurityController</text><text fill="#000000" font-family="Arial" font-size="11" lengthAdjust="spacing" textLength="136.0283" x="443" y="397.1108">+ RegistroUsuarioController</text></g><!--entity GlobalExceptionHandler--><g id="elem_GlobalExceptionHandler"><rect fill="#FFFFFF" height="43.7988" rx="3" ry="3" style="stroke:#444444;stroke-width:1.0;" width="169.4102" x="610.5" y="216.1973"/><rect fill="#FFFFFF" height="10" style="stroke:#444444;stroke-width:1.0;" width="15" x="759.9102" y="221.1973"/><rect fill="#FFFFFF" height="2" style="stroke:#444444;stroke-width:1.0;" width="4" x="757.9102" y="223.1973"/><rect fill="#FFFFFF" height="2" style="stroke:#444444;stroke-width:1.0;" width="4" x="757.9102" y="227.1973"/><text fill="#111111" font-family="Arial" font-size="12" lengthAdjust="spacing" textLength="129.4102" x="625.5" y="247.4531">GlobalExceptionHandler</text></g><g id="elem_GMN17"><path d="M797.5,217.1973 L797.5,234.1973 L779.7656,238.1973 L797.5,242.1973 L797.5,259.144 A3,3 0 0 0 800.5,262.144 L989.7651,262.144 A3,3 0 0 0 992.7651,259.144 L992.7651,224.1973 L982.7651,214.1973 L800.5,214.1973 A3,3 0 0 0 797.5,217.1973 " fill="#FFFFF0" style="stroke:#AAAAAA;stroke-width:0.5;"/><path d="M982.7651,214.1973 L982.7651,222.6973 A1.5,1.5 0 0 0 984.2651,224.1973 L992.7651,224.1973 L982.7651,214.1973 " fill="#FFFFF0" style="stroke:#AAAAAA;stroke-width:0.5;"/><text fill="#000000" font-family="Arial" font-size="11" lengthAdjust="spacing" textLength="133.3213" x="803.5" y="229.5151">13 excepciones de negocio</text><text fill="#000000" font-family="Arial" font-size="11" lengthAdjust="spacing" textLength="174.2651" x="803.5" y="242.1641">(ej: ClienteNoEncontradoException,</text><text fill="#000000" font-family="Arial" font-size="11" lengthAdjust="spacing" textLength="135.7383" x="803.5" y="254.813">TokenInvalidoException, ...)</text></g><!--entity ISvc--><g id="elem_ISvc"><ellipse cx="810" cy="465.1973" fill="#FFFFFF" rx="8" ry="8" style="stroke:#444444;stroke-width:0.5;"/><text fill="#111111" font-family="Arial" font-size="12" lengthAdjust="spacing" textLength="60.0176" x="779.9912" y="493.4531">XxxService</text></g><!--entity XxxServiceImpl--><g id="elem_XxxServiceImpl"><rect fill="#FFFFFF" height="43.7988" rx="3" ry="3" style="stroke:#444444;stroke-width:1.0;" width="122.6875" x="801.5" y="345.6973"/><rect fill="#FFFFFF" height="10" style="stroke:#444444;stroke-width:1.0;" width="15" x="904.1875" y="350.6973"/><rect fill="#FFFFFF" height="2" style="stroke:#444444;stroke-width:1.0;" width="4" x="902.1875" y="352.6973"/><rect fill="#FFFFFF" height="2" style="stroke:#444444;stroke-width:1.0;" width="4" x="902.1875" y="356.6973"/><text fill="#111111" font-family="Arial" font-size="12" lengthAdjust="spacing" textLength="82.6875" x="816.5" y="376.9531">XxxServiceImpl</text></g><g id="elem_GMN23"><path d="M943,340.1973 L943,363.6973 L924.8164,367.6973 L943,371.6973 L943,394.793 A3,3 0 0 0 946,397.793 L1201.8828,397.793 A3,3 0 0 0 1204.8828,394.793 L1204.8828,347.1973 L1194.8828,337.1973 L946,337.1973 A3,3 0 0 0 943,340.1973 " fill="#FFFFF0" style="stroke:#AAAAAA;stroke-width:0.5;"/><path d="M1194.8828,337.1973 L1194.8828,345.6973 A1.5,1.5 0 0 0 1196.3828,347.1973 L1204.8828,347.1973 L1194.8828,337.1973 " fill="#FFFFF0" style="stroke:#AAAAAA;stroke-width:0.5;"/><text fill="#000000" font-family="Arial" font-size="11" lengthAdjust="spacing" textLength="108.2114" x="949" y="352.5151">9 pares interfaz / impl:</text><text fill="#000000" font-family="Arial" font-size="11" lengthAdjust="spacing" textLength="154.0913" x="949" y="365.1641">Autenticacion &#183; Cliente &#183; Cuenta</text><text fill="#000000" font-family="Arial" font-size="11" lengthAdjust="spacing" textLength="188.9121" x="949" y="377.813">Transaccion &#183; Profile &#183; AccountSecurity</text><text fill="#000000" font-family="Arial" font-size="11" lengthAdjust="spacing" textLength="240.8828" x="949" y="390.4619">RefreshToken &#183; RegistroUsuario &#183; NumeroCuenta</text></g><!--entity XxxMapper--><g id="elem_XxxMapper"><rect fill="#FFFFFF" height="43.7988" rx="3" ry="3" style="stroke:#444444;stroke-width:1.0;" width="100.6914" x="547.5" y="557.6973"/><rect fill="#FFFFFF" height="10" style="stroke:#444444;stroke-width:1.0;" width="15" x="628.1914" y="562.6973"/><rect fill="#FFFFFF" height="2" style="stroke:#444444;stroke-width:1.0;" width="4" x="626.1914" y="564.6973"/><rect fill="#FFFFFF" height="2" style="stroke:#444444;stroke-width:1.0;" width="4" x="626.1914" y="568.6973"/><text fill="#111111" font-family="Arial" font-size="12" lengthAdjust="spacing" textLength="60.6914" x="562.5" y="588.9531">XxxMapper</text></g><g id="elem_GMN29"><path d="M666.5,558.6973 L666.5,575.6973 L648.6094,579.6973 L666.5,583.6973 L666.5,600.644 A3,3 0 0 0 669.5,603.644 L842.2544,603.644 A3,3 0 0 0 845.2544,600.644 L845.2544,565.6973 L835.2544,555.6973 L669.5,555.6973 A3,3 0 0 0 666.5,558.6973 " fill="#FFFFF0" style="stroke:#AAAAAA;stroke-width:0.5;"/><path d="M835.2544,555.6973 L835.2544,564.1973 A1.5,1.5 0 0 0 836.7544,565.6973 L845.2544,565.6973 L835.2544,555.6973 " fill="#FFFFF0" style="stroke:#AAAAAA;stroke-width:0.5;"/><text fill="#000000" font-family="Arial" font-size="11" lengthAdjust="spacing" textLength="55.0269" x="672.5" y="571.0151">5 mappers:</text><text fill="#000000" font-family="Arial" font-size="11" lengthAdjust="spacing" textLength="157.7544" x="672.5" y="583.6641">Autenticacion &#183; Usuario &#183; Cuenta</text><text fill="#000000" font-family="Arial" font-size="11" lengthAdjust="spacing" textLength="100.2622" x="672.5" y="596.313">Profile &#183; Transaccion</text></g><!--entity XxxRequestDTO--><g id="elem_XxxRequestDTO"><rect fill="#FFFFFF" height="57.5977" rx="3" ry="3" style="stroke:#444444;stroke-width:1.0;" width="130.0293" x="380" y="686.6973"/><rect fill="#FFFFFF" height="10" style="stroke:#444444;stroke-width:1.0;" width="15" x="490.0293" y="691.6973"/><rect fill="#FFFFFF" height="2" style="stroke:#444444;stroke-width:1.0;" width="4" x="488.0293" y="693.6973"/><rect fill="#FFFFFF" height="2" style="stroke:#444444;stroke-width:1.0;" width="4" x="488.0293" y="697.6973"/><text fill="#111111" font-family="Arial" font-size="12" font-style="italic" lengthAdjust="spacing" textLength="38.6777" x="420.6758" y="717.9531">&#171;DTO&#187;</text><text fill="#111111" font-family="Arial" font-size="12" lengthAdjust="spacing" textLength="90.0293" x="395" y="731.752">XxxRequestDTO</text></g><!--entity XxxResponseDTO--><g id="elem_XxxResponseDTO"><rect fill="#FFFFFF" height="57.5977" rx="3" ry="3" style="stroke:#444444;stroke-width:1.0;" width="139.3691" x="528.5" y="686.6973"/><rect fill="#FFFFFF" height="10" style="stroke:#444444;stroke-width:1.0;" width="15" x="647.8691" y="691.6973"/><rect fill="#FFFFFF" height="2" style="stroke:#444444;stroke-width:1.0;" width="4" x="645.8691" y="693.6973"/><rect fill="#FFFFFF" height="2" style="stroke:#444444;stroke-width:1.0;" width="4" x="645.8691" y="697.6973"/><text fill="#111111" font-family="Arial" font-size="12" font-style="italic" lengthAdjust="spacing" textLength="38.6777" x="573.8457" y="717.9531">&#171;DTO&#187;</text><text fill="#111111" font-family="Arial" font-size="12" lengthAdjust="spacing" textLength="99.3691" x="543.5" y="731.752">XxxResponseDTO</text></g><g id="elem_GMN35"><path d="M685.5,694.6973 L685.5,711.6973 L667.8008,715.6973 L685.5,719.6973 L685.5,736.644 A3,3 0 0 0 688.5,739.644 L841.0752,739.644 A3,3 0 0 0 844.0752,736.644 L844.0752,701.6973 L834.0752,691.6973 L688.5,691.6973 A3,3 0 0 0 685.5,694.6973 " fill="#FFFFF0" style="stroke:#AAAAAA;stroke-width:0.5;"/><path d="M834.0752,691.6973 L834.0752,700.1973 A1.5,1.5 0 0 0 835.5752,701.6973 L844.0752,701.6973 L834.0752,691.6973 " fill="#FFFFF0" style="stroke:#AAAAAA;stroke-width:0.5;"/><text fill="#000000" font-family="Arial" font-size="11" lengthAdjust="spacing" textLength="137.5752" x="691.5" y="707.0151">11 DTOs de entrada / salida</text><text fill="#000000" font-family="Arial" font-size="11" lengthAdjust="spacing" textLength="117.9976" x="691.5" y="719.6641">(Login, Registro, Profile,</text><text fill="#000000" font-family="Arial" font-size="11" lengthAdjust="spacing" textLength="111.2461" x="691.5" y="732.313">Movimiento, Cierre, ...)</text></g><!--entity XxxRepository--><g id="elem_XxxRepository"><rect fill="#FFFFFF" height="43.7988" rx="3" ry="3" style="stroke:#444444;stroke-width:1.0;" width="117.3613" x="870.5" y="557.6973"/><rect fill="#FFFFFF" height="10" style="stroke:#444444;stroke-width:1.0;" width="15" x="967.8613" y="562.6973"/><rect fill="#FFFFFF" height="2" style="stroke:#444444;stroke-width:1.0;" width="4" x="965.8613" y="564.6973"/><rect fill="#FFFFFF" height="2" style="stroke:#444444;stroke-width:1.0;" width="4" x="965.8613" y="568.6973"/><text fill="#111111" font-family="Arial" font-size="12" lengthAdjust="spacing" textLength="77.3613" x="885.5" y="588.9531">XxxRepository</text></g><g id="elem_GMN40"><path d="M1005.5,552.1973 L1005.5,575.6973 L987.5,579.6973 L1005.5,583.6973 L1005.5,606.793 A3,3 0 0 0 1008.5,609.793 L1161.6714,609.793 A3,3 0 0 0 1164.6714,606.793 L1164.6714,559.1973 L1154.6714,549.1973 L1008.5,549.1973 A3,3 0 0 0 1005.5,552.1973 " fill="#FFFFF0" style="stroke:#AAAAAA;stroke-width:0.5;"/><path d="M1154.6714,549.1973 L1154.6714,557.6973 A1.5,1.5 0 0 0 1156.1714,559.1973 L1164.6714,559.1973 L1154.6714,549.1973 " fill="#FFFFF0" style="stroke:#AAAAAA;stroke-width:0.5;"/><text fill="#000000" font-family="Arial" font-size="11" lengthAdjust="spacing" textLength="69.0884" x="1011.5" y="564.5151">7 repositories:</text><text fill="#000000" font-family="Arial" font-size="11" lengthAdjust="spacing" textLength="125.9521" x="1011.5" y="577.1641">Cliente &#183; Usuario &#183; Cuenta</text><text fill="#000000" font-family="Arial" font-size="11" lengthAdjust="spacing" textLength="138.1714" x="1011.5" y="589.813">Transaccion &#183; Rol &#183; Auditoria</text><text fill="#000000" font-family="Arial" font-size="11" lengthAdjust="spacing" textLength="69.0884" x="1011.5" y="602.4619">RefreshToken</text></g><!--entity XxxEntity--><g id="elem_XxxEntity"><rect fill="#FFFFFF" height="57.5977" rx="3" ry="3" style="stroke:#444444;stroke-width:1.0;" width="90.0156" x="869" y="686.6973"/><rect fill="#FFFFFF" height="10" style="stroke:#444444;stroke-width:1.0;" width="15" x="939.0156" y="691.6973"/><rect fill="#FFFFFF" height="2" style="stroke:#444444;stroke-width:1.0;" width="4" x="937.0156" y="693.6973"/><rect fill="#FFFFFF" height="2" style="stroke:#444444;stroke-width:1.0;" width="4" x="937.0156" y="697.6973"/><text fill="#111111" font-family="Arial" font-size="12" font-style="italic" lengthAdjust="spacing" textLength="42.0293" x="887.9932" y="717.9531">&#171;entity&#187;</text><text fill="#111111" font-family="Arial" font-size="12" lengthAdjust="spacing" textLength="50.0156" x="884" y="731.752">XxxEntity</text></g><g id="elem_GMN45"><path d="M977.5,682.1973 L977.5,711.6973 L959.2461,715.6973 L977.5,719.6973 L977.5,749.4419 A3,3 0 0 0 980.5,752.4419 L1133.6714,752.4419 A3,3 0 0 0 1136.6714,749.4419 L1136.6714,689.1973 L1126.6714,679.1973 L980.5,679.1973 A3,3 0 0 0 977.5,682.1973 " fill="#FFFFF0" style="stroke:#AAAAAA;stroke-width:0.5;"/><path d="M1126.6714,679.1973 L1126.6714,687.6973 A1.5,1.5 0 0 0 1128.1714,689.1973 L1136.6714,689.1973 L1126.6714,679.1973 " fill="#FFFFF0" style="stroke:#AAAAAA;stroke-width:0.5;"/><text fill="#000000" font-family="Arial" font-size="11" lengthAdjust="spacing" textLength="83.166" x="983.5" y="694.5151">7 entidades JPA:</text><text fill="#000000" font-family="Arial" font-size="11" lengthAdjust="spacing" textLength="125.9521" x="983.5" y="707.1641">Cliente &#183; Usuario &#183; Cuenta</text><text fill="#000000" font-family="Arial" font-size="11" lengthAdjust="spacing" textLength="138.1714" x="983.5" y="719.813">Transaccion &#183; Rol &#183; Auditoria</text><text fill="#000000" font-family="Arial" font-size="11" lengthAdjust="spacing" textLength="69.0884" x="983.5" y="732.4619">RefreshToken</text><text fill="#000000" font-family="Arial" font-size="11" lengthAdjust="spacing" textLength="93.8652" x="983.5" y="745.1108">+ 6 enumeraciones</text></g><polygon fill="none" points="816.0467,455.9595,829.8594,442.9515,819.292,437.2655,816.0467,455.9595" style="stroke:#444444;stroke-width:1.0;"/><path d="M851.4998,390.0703 C840.6006,410.3264 833.1827,424.1125 824.5757,440.1085 " fill="none" style="stroke:#444444;stroke-width:1.0;stroke-dasharray:7.0,7.0;"/><polygon fill="#444444" points="212,215.9487,216,206.9487,212,210.9487,208,206.9487,212,215.9487" style="stroke:#444444;stroke-width:1.0;"/><path d="M212,132.5053 C212,159.0365 212,187.9132 212,209.9487 " fill="none" style="stroke:#444444;stroke-width:1.0;"/><text fill="#333333" font-family="Arial" font-size="11" lengthAdjust="spacing" textLength="72.7461" x="214.0054" y="162.5151">HTTP Request</text><text fill="#333333" font-family="Arial" font-size="11" lengthAdjust="spacing" textLength="72.7568" x="214" y="175.1641">[Bearer Token]</text><polygon fill="#444444" points="224.5194,345.612,227.4404,336.2062,223.9352,340.6462,219.4952,337.141,224.5194,345.612" style="stroke:#444444;stroke-width:1.0;"/><path d="M214.4769,260.2513 C217.2562,283.875 221.0376,316.0166 223.8183,339.6531 " fill="none" style="stroke:#444444;stroke-width:1.0;stroke-dasharray:7.0,7.0;"/><text fill="#333333" font-family="Arial" font-size="11" lengthAdjust="spacing" textLength="58.7061" x="221" y="292.5151">valida token</text><polygon fill="#444444" points="670.4576,345.4031,665.9322,336.6555,666.5546,342.278,660.9321,342.9004,670.4576,345.4031" style="stroke:#444444;stroke-width:1.0;"/><path d="M254.5248,240.2463 C328.2746,243.3573 483.5485,255.658 604,304.1973 C628.532,314.0831 648.3753,327.7225 665.774,341.653 " fill="none" style="stroke:#444444;stroke-width:1.0;"/><text fill="#333333" font-family="Arial" font-size="11" lengthAdjust="spacing" textLength="96.626" x="576" y="292.5151">request autenticada</text><polygon fill="#444444" points="340.6013,345.5698,338.8882,335.8711,337.8068,341.4236,332.2543,340.3423,340.6013,345.5698" style="stroke:#444444;stroke-width:1.0;"/><path d="M254.7432,259.5723 C265.1658,265.4956 275.9191,272.4768 285,280.1973 C307.5386,299.3593 324.5766,321.794 337.2479,340.5944 " fill="none" style="stroke:#444444;stroke-width:1.0;"/><polygon fill="#444444" points="695,345.612,699,336.612,695,340.612,691,336.612,695,345.612" style="stroke:#444444;stroke-width:1.0;"/><path d="M695,260.2513 C695,283.875 695,315.9755 695,339.612 " fill="none" style="stroke:#444444;stroke-width:1.0;stroke-dasharray:7.0,7.0;"/><text fill="#333333" font-family="Arial" font-size="11" lengthAdjust="spacing" textLength="48.9253" x="697" y="292.5151">&#171;captura&#187;</text><polygon fill="#444444" points="800.9094,459.4109,796.676,450.5183,797.1119,456.1583,791.4719,456.5942,800.9094,459.4109" style="stroke:#444444;stroke-width:1.0;"/><path d="M719.6704,389.828 C745.1455,411.648 778.993,440.6391 796.3524,455.5078 " fill="none" style="stroke:#444444;stroke-width:1.0;stroke-dasharray:7.0,7.0;"/><text fill="#333333" font-family="Arial" font-size="11" lengthAdjust="spacing" textLength="29.9707" x="779" y="434.5151">&#171;use&#187;</text><polygon fill="#444444" points="800.8105,467.1673,791.8482,463.0835,795.8107,467.1207,791.7736,471.0832,800.8105,467.1673" style="stroke:#444444;stroke-width:1.0;"/><path d="M383.6585,389.7127 C396.6923,397.9794 412.5305,406.7736 428,412.1973 C570.2669,462.0766 751.5414,466.7076 794.8108,467.1113 " fill="none" style="stroke:#444444;stroke-width:1.0;stroke-dasharray:7.0,7.0;"/><text fill="#333333" font-family="Arial" font-size="11" lengthAdjust="spacing" textLength="29.9707" x="522" y="434.5151">&#171;use&#187;</text><polygon fill="#444444" points="615.883,557.5475,624.931,553.6574,619.2785,553.8772,619.0586,548.2247,615.883,557.5475" style="stroke:#444444;stroke-width:1.0;"/><path d="M800.7868,470.9438 C776.0419,475.9277 706.6505,491.851 657,522.1973 C641.5107,531.6643 630.8352,541.3849 619.9575,553.1432 " fill="none" style="stroke:#444444;stroke-width:1.0;stroke-dasharray:7.0,7.0;"/><text fill="#333333" font-family="Arial" font-size="11" lengthAdjust="spacing" textLength="77.6392" x="707" y="510.5151">Entidad &#8596; DTO</text><polygon fill="#444444" points="906.0292,557.5602,902.1148,548.5227,902.3498,554.1746,896.6979,554.4096,906.0292,557.5602" style="stroke:#444444;stroke-width:1.0;"/><path d="M819.3377,477.7895 C837.8572,494.8306 875.3015,529.2856 901.614,553.4975 " fill="none" style="stroke:#444444;stroke-width:1.0;stroke-dasharray:7.0,7.0;"/><text fill="#333333" font-family="Arial" font-size="11" lengthAdjust="spacing" textLength="88.6553" x="860" y="510.5151">consulta / persiste</text><polygon fill="#444444" points="472.1657,686.4442,481.336,682.8519,475.6793,682.8868,475.6443,677.2301,472.1657,686.4442" style="stroke:#444444;stroke-width:1.0;"/><path d="M567.7328,601.8925 C556.8529,609.8391 544.6454,619.1427 534,628.1973 C512.335,646.6246 493.566,664.7776 476.382,682.1754 " fill="none" style="stroke:#444444;stroke-width:1.0;stroke-dasharray:7.0,7.0;"/><text fill="#333333" font-family="Arial" font-size="11" lengthAdjust="spacing" textLength="56.8691" x="536" y="640.5151">&#171;consume&#187;</text><polygon fill="#444444" points="598,686.572,602,677.572,598,681.572,594,677.572,598,686.572" style="stroke:#444444;stroke-width:1.0;"/><path d="M598,601.93 C598,624.8072 598,655.3212 598,680.572 " fill="none" style="stroke:#444444;stroke-width:1.0;stroke-dasharray:7.0,7.0;"/><text fill="#333333" font-family="Arial" font-size="11" lengthAdjust="spacing" textLength="51.9868" x="600" y="640.5151">&#171;produce&#187;</text><polygon fill="#444444" points="894.918,686.3918,892.4579,676.8552,891.8104,682.4748,886.1907,681.8273,894.918,686.3918" style="stroke:#444444;stroke-width:1.0;"/><path d="M626.1856,601.8207 C635.5691,607.9564 646.3522,614.1006 657,618.1973 C741.1507,650.5737 777.8688,608.9789 857,652.1973 C871.9507,660.3628 881.3266,669.2605 891.1888,681.6914 " fill="none" style="stroke:#444444;stroke-width:1.0;stroke-dasharray:7.0,7.0;"/><text fill="#333333" font-family="Arial" font-size="11" lengthAdjust="spacing" textLength="64.8076" x="840" y="640.5151">&#171;transforma&#187;</text><polygon fill="#444444" points="917.1483,686.572,922.1247,678.0729,917.7046,681.6031,914.1744,677.1829,917.1483,686.572" style="stroke:#444444;stroke-width:1.0;"/><path d="M926.6232,601.93 C924.0623,624.8072 920.6424,655.3584 917.8158,680.6093 " fill="none" style="stroke:#444444;stroke-width:1.0;stroke-dasharray:7.0,7.0;"/><text fill="#333333" font-family="Arial" font-size="11" lengthAdjust="spacing" textLength="40.3691" x="925" y="640.5151">&#171;opera&#187;</text><polygon fill="#444444" points="1187.9633,693.5745,1186.4225,683.8469,1185.2428,689.3793,1179.7104,688.1996,1187.9633,693.5745" style="stroke:#444444;stroke-width:1.0;"/><path d="M962.6845,601.7405 C973.3562,607.726 985.4007,613.8045 997,618.1973 C1061.7381,642.714 1090.1008,615.8245 1149,652.1973 C1165.4438,662.352 1175.7146,674.6863 1184.6987,688.5403 " fill="none" style="stroke:#444444;stroke-width:1.0;"/><text fill="#333333" font-family="Arial" font-size="11" lengthAdjust="spacing" textLength="81.3184" x="1134" y="640.5151">Spring Data JPA</text><!--SRC=[jLZBSjis5DtpAsxLHTDfuaH-DXdLCnH59VBOaahIdNGIBo0Iab5J10k2VgJjJ5VzWlnBz_sKV4alG59yYFB63EmPKVU5YtCVkDGtiI2hDO6GFF1KGhAcaaJ4a3m6oM71fUHh29YWlcGyCWp9P4XXi3WTCR8I13K32dFoUqebJU01BBwEUKGZ_3PukJZz60r9v7COiHMJ98GlVt-6Ct9Be7y2__qBRYnOj88Xvn8E567E4xaIrFtvt32I6nR51FU0Fmo08V5lLeAdKM3na0luTgmNSaPqIT9GZdaafsHDmHICX7MwopvHwEyRI3M5u7UvYKEz2g8Ip1a7UbKPcOL-GVAkcNyJqII1lZ8wH-V8YcxxQAg_YW0N0HKvyqYl9hEql5-oj0Vo0P5Vy31eqBLdXtLYlaLVB-NX9YwxSIn5gbvkC6gmgmXKc5Mq6-GjdoQO9M99VBhRfrAarQSDkxvjZRorxOX8iY398xjk9AgRRdAYu9Px7kZ4yYKNxHgQrH2VShd3WrS5jshBr2ldL1CIIUur2VYTAgGb2HEA52UpAI8guDZuop2-Wv-Ui53TjBoPyrGpHE40FIjaga70Ey-Rzu0a-g437rtRkdGctgzFjHHdTGIzXFgfOFAXfoDpOB_IdSWlaXe-Z5ae1J-xarTrEb8k9GiLDS9u5NsKBnig03zWZKHBjae5yR71kXIVM422d7cPf4GmFiAk78OqSQcuPRwAC8q2RRgJu5gpgUVCpizjfpFeV4nHmT5deS3hZt-qNpV1CrE9dypN1xSsyWqeysIfypMeWgskfSQqLKPZcoATbFISx0aI9SIlxvlpve8lMKYtwARlOr59Dq-9BRv3Lon1KXwn6h_JODdlBNlkJMRJpc95xtqQg-jTXSgo3ssh6Qgt8L-Gq2xatf4eQ8_4Ra70lWTw9mKxpWeuDqHqnV6RvZwZlxs1F91JRaSwWR2lRMmzrs8Ulw7H9Beb8QloO6zlx_kkaNPjvvU9PNVOJdJr8ihsmNX_FD8ei-AkWjxx-tkt4C6kE75l_NeOIe79EWvRuDyM07WDE4GXtlb6d-0bC6I-qSnQ3Qe1hEZDwb4NJuPwMJ1wIijgH3qsoa9BEtI96rxhK2cPHcaeqZHTKy4tEsp21bjdmCZ-UPfXqKLCBypvlCCsjoPnh5kSFR9FniVDki6pN6Y9zbYLF80Zo6mbEm9J0QyIc4eaAZ7gkX16tgmpn0B95LoMFHxtM-1oABvA919tl08O3F3pzBH5AC5l2TLIfT0sm5N1h0VrrM5qyw6wln0iXqGrampFP-TynR2T52dxl40uwpuN_9QjLO4Wms9K2FfrEezZpsVk12UkxcOPGMEUC9o_yca6yxKL_aBgQWUWLJx02MpiCfgdRgM5j2TjeviuFDIT90sq6RBLGpg_GQTUbrEYgbCz8zhzyT7ORa7LrX8gLJFP7TcQY-N0Ab4S1B5pdytDhuUicbsESJFLa4bsDNUDzz1qRHZXl-dDtAUQ2_AtB-YLlnNewt8qxAJmpaqBPolRLLdYs62PS_F9FXlg1GSswyMBKwY-241jlT6lGv0tme_HXo75-rjaay-LKTVRsrEcYjSDQ5hIOn81gMFTKCsys3M4exB8F01IY62FR3FHCdqRkmR1tE57TXqCV19BV1t28Z5s2sexQYe0hPCc5ELRNCcXQ1KtCi9cPRwLztA1efrL8dpvvxE-2dUfLPgZKiC9Dab3gMuOTQ_ZVKBnH7Np5TtAlQTHKDfhVQgTAfLRKAd4WWUf_vXAqOZoWmq6KZMC9HVh3Ex68Lhrb1f7ooJVftPgdH6ZOICDyv_vr0ydgfaP_mC0]--></g></svg>